<svg width="40.000000" height="40.000000" viewBox="0 0 40 40" fill="none" xmlns="http://www.w3.org/2000/svg" xmlns:xlink="http://www.w3.org/1999/xlink">
	<desc>
			Created with Pixso.
	</desc>
	<defs/>
	<path id="фейсбук" d="M40 20C40 8.95 31.04 0 20 0C8.95 0 0 8.95 0 20C0 31.04 8.95 40 20 40C20.11 40 20.23 39.99 20.35 39.99L20.35 24.42L16.05 24.42L16.05 19.41L20.35 19.41L20.35 15.73C20.35 11.46 22.96 9.13 26.77 9.13C28.59 9.13 30.16 9.27 30.62 9.33L30.62 13.79L27.99 13.79C25.92 13.79 25.52 14.78 25.52 16.22L25.52 19.41L30.47 19.41L29.83 24.42L25.52 24.42L25.52 39.22C33.88 36.83 40 29.12 40 20Z" fill="#FFFFFF" fill-opacity="1.000000" fill-rule="nonzero"/>
</svg>
