<svg width="40.000000" height="40.000000" viewBox="0 0 40 40" fill="none" xmlns="http://www.w3.org/2000/svg" xmlns:xlink="http://www.w3.org/1999/xlink">
	<desc>
			Created with Pixso.
	</desc>
	<defs>
		<clipPath id="clip596_145">
			<rect id="instagram 2" width="40.000000" height="40.000000" fill="white" fill-opacity="0"/>
		</clipPath>
	</defs>
	<rect id="instagram 2" width="40.000000" height="40.000000" fill="#FFFFFF" fill-opacity="0"/>
	<g clip-path="url(#clip596_145)">
		<path id="Vector" d="M23.82 20C23.82 22.11 22.11 23.82 20 23.82C17.88 23.82 16.17 22.11 16.17 20C16.17 17.88 17.88 16.17 20 16.17C22.11 16.17 23.82 17.88 23.82 20Z" fill="#FFFFFF"  fill-rule="nonzero"/>
		<path id="Vector" d="M28.95 13.22C28.76 12.72 28.47 12.27 28.09 11.9C27.72 11.52 27.27 11.23 26.77 11.04C26.36 10.89 25.76 10.7 24.64 10.65C23.42 10.59 23.06 10.58 20 10.58C16.93 10.58 16.57 10.59 15.35 10.65C14.23 10.7 13.63 10.89 13.22 11.04C12.72 11.23 12.27 11.52 11.9 11.9C11.52 12.27 11.23 12.72 11.04 13.22C10.88 13.63 10.7 14.23 10.65 15.35C10.59 16.57 10.58 16.93 10.58 20C10.58 23.06 10.59 23.42 10.65 24.64C10.7 25.76 10.88 26.36 11.04 26.77C11.23 27.27 11.52 27.72 11.9 28.09C12.27 28.47 12.72 28.76 13.22 28.95C13.63 29.11 14.23 29.29 15.35 29.34C16.57 29.4 16.93 29.41 19.99 29.41C23.06 29.41 23.42 29.4 24.64 29.34C25.76 29.29 26.36 29.11 26.77 28.95C27.77 28.56 28.56 27.77 28.95 26.77C29.1 26.36 29.29 25.76 29.34 24.64C29.4 23.42 29.41 23.06 29.41 20C29.41 16.93 29.4 16.57 29.34 15.35C29.29 14.23 29.11 13.63 28.95 13.22ZM20 25.89C16.74 25.89 14.1 23.25 14.1 20C14.1 16.74 16.74 14.1 20 14.1C23.25 14.1 25.89 16.74 25.89 20C25.89 23.25 23.25 25.89 20 25.89ZM26.13 15.24C25.36 15.24 24.75 14.63 24.75 13.86C24.75 13.1 25.36 12.49 26.13 12.49C26.89 12.49 27.5 13.1 27.5 13.86C27.5 14.63 26.89 15.24 26.13 15.24Z" fill="#FFFFFF" fill-opacity="0.500000" fill-rule="nonzero"/>
		<path id="Vector" d="M20 0C8.95 0 0 8.95 0 20C0 31.04 8.95 40 20 40C31.04 40 40 31.04 40 20C40 8.95 31.04 0 20 0ZM31.41 24.73C31.35 25.95 31.16 26.79 30.88 27.52C30.28 29.06 29.06 30.28 27.52 30.88C26.79 31.16 25.95 31.35 24.73 31.41C23.51 31.47 23.11 31.48 20 31.48C16.88 31.48 16.49 31.47 15.26 31.41C14.04 31.35 13.2 31.16 12.47 30.88C11.71 30.59 11.01 30.14 10.44 29.55C9.85 28.98 9.4 28.28 9.11 27.52C8.83 26.79 8.64 25.95 8.58 24.73C8.52 23.51 8.51 23.11 8.51 20C8.51 16.88 8.52 16.48 8.58 15.26C8.64 14.04 8.83 13.2 9.11 12.47C9.4 11.71 9.85 11.01 10.44 10.44C11.01 9.85 11.71 9.4 12.47 9.11C13.2 8.83 14.04 8.64 15.26 8.58C16.48 8.52 16.88 8.51 20 8.51C23.11 8.51 23.51 8.52 24.73 8.58C25.95 8.64 26.79 8.83 27.52 9.11C28.28 9.4 28.98 9.85 29.55 10.44C30.14 11.01 30.59 11.71 30.88 12.47C31.16 13.2 31.35 14.04 31.41 15.26C31.47 16.48 31.48 16.88 31.48 20C31.48 23.11 31.47 23.51 31.41 24.73Z" fill="#FFFFFF"  fill-rule="nonzero"/>
	</g>
</svg>
