<svg width="40.000000" height="40.000000" viewBox="0 0 40 40" fill="none" xmlns="http://www.w3.org/2000/svg" xmlns:xlink="http://www.w3.org/1999/xlink">
	<desc>
			Created with Pixso.
	</desc>
	<defs/>
	<path id="Vector" d="M17.5 23.49L24.01 19.74L17.5 16L17.5 23.49Z" fill="#FFFFFF" fill-rule="nonzero"/>
	<path id="Vector" d="M20 0C8.95 0 0 8.95 0 20C0 31.04 8.95 40 20 40C31.04 40 40 31.04 40 20C40 8.95 31.04 0 20 0ZM32.49 20.02C32.49 20.02 32.49 24.07 31.98 26.03C31.69 27.1 30.84 27.94 29.77 28.23C27.82 28.75 20 28.75 20 28.75C20 28.75 12.19 28.75 10.22 28.21C9.15 27.92 8.3 27.08 8.01 26.01C7.5 24.07 7.5 20 7.5 20C7.5 20 7.5 15.94 8.01 13.98C8.3 12.91 9.17 12.05 10.22 11.76C12.17 11.25 20 11.25 20 11.25C20 11.25 27.82 11.25 29.77 11.78C30.84 12.07 31.69 12.91 31.98 13.98C32.51 15.94 32.49 20.02 32.49 20.02Z" fill="#FFFFFF" fill-rule="nonzero"/>
</svg>
